<?xml version="1.0" encoding="UTF-8" standalone="no"?>
<!-- Uploaded to: SVG Repo, www.svgrepo.com, Generator: SVG Repo Mixer Tools -->

<svg
   fill="#000000"
   height="800"
   width="800"
   version="1.1"
   id="Layer_1"
   viewBox="0 0 503.607 503.607"
   xml:space="preserve"
   xmlns="http://www.w3.org/2000/svg"><defs
   id="defs6" />

<g
   id="g16"
   transform="rotate(90,249.40097,249.40098)"><g
     transform="matrix(0.49421488,0,0,1,255.21114,1)"
     id="g6">
	<g
   id="g5">
		<g
   id="g4">
			<path
   d="m 485.82,158.475 h -33.574 c -9.233,0 -16.787,7.554 -16.787,16.787 v 8.393 H 66.148 v -8.393 c 0,-9.233 -7.554,-16.787 -16.787,-16.787 H 15.787 C 6.554,158.475 -1,166.03 -1,175.262 v 151.082 c 0,9.233 7.554,16.787 16.787,16.787 h 33.574 c 9.233,0 16.787,-7.554 16.787,-16.787 v -8.393 h 369.311 v 8.393 c 0,9.233 7.554,16.787 16.787,16.787 h 33.574 c 9.233,0 16.787,-7.554 16.787,-16.787 V 175.262 c 0,-9.232 -7.555,-16.787 -16.787,-16.787 z M 49.361,326.344 H 15.787 V 175.262 h 33.574 v 16.787 117.508 z m 16.787,-25.18 v -67.148 h 25.18 c 5.036,0 8.393,-3.357 8.393,-8.393 0,-5.036 -3.357,-8.393 -8.393,-8.393 h -25.18 v -16.787 h 369.311 v 16.787 h -33.574 c -5.036,0 -8.393,3.357 -8.393,8.393 0,5.036 3.357,8.393 8.393,8.393 h 33.574 v 67.148 z m 419.672,25.18 H 452.246 V 309.557 192.049 175.262 h 33.574 z"
   id="path1" />
			<path
   d="m 225.623,217.229 h -67.148 c -5.036,0 -8.393,3.357 -8.393,8.393 0,5.036 3.357,8.393 8.393,8.393 h 67.148 c 5.036,0 8.393,-3.357 8.393,-8.393 0,-5.035 -3.357,-8.393 -8.393,-8.393 z"
   id="path2" />
			<path
   d="m 124.902,217.229 c -5.036,0 -8.393,3.357 -8.393,8.393 0,5.036 3.357,8.393 8.393,8.393 5.036,0 8.393,-3.357 8.393,-8.393 0,-5.035 -3.357,-8.393 -8.393,-8.393 z"
   id="path3" />
			<path
   d="M 351.525,217.229 H 267.59 c -5.036,0 -8.393,3.357 -8.393,8.393 0,5.036 3.357,8.393 8.393,8.393 h 83.934 c 5.036,0 8.393,-3.357 8.393,-8.393 0.001,-5.035 -3.356,-8.393 -8.392,-8.393 z"
   id="path4" />
		</g>
	</g>
</g><path
     style="fill:#000000;stroke-width:0.629509"
     id="path15"
     d="m 226.69252,146.22637 -0.0878,100.77208 -0.0878,100.77208 -87.22729,-50.46206 -87.227284,-50.46207 87.315074,-50.31002 z"
     transform="matrix(0.44547474,0,0,1,125.70673,0)" /><rect
     style="fill:#000000;stroke-width:0.629509"
     id="rect15"
     width="24.417311"
     height="12.763594"
     x="228.76312"
     y="166.20419" /><rect
     style="fill:#000000;stroke-width:0.629509"
     id="rect15-9"
     width="24.417311"
     height="12.763594"
     x="228.76312"
     y="188.26474" /><rect
     style="fill:#000000;stroke-width:0.629509"
     id="rect15-2"
     width="24.417311"
     height="12.763594"
     x="228.76312"
     y="210.26459" /><rect
     style="fill:#000000;stroke-width:0.629509"
     id="rect15-9-4"
     width="24.417311"
     height="12.763594"
     x="228.76312"
     y="232.32512" /><rect
     style="fill:#000000;stroke-width:0.629509"
     id="rect15-5"
     width="24.417311"
     height="12.763594"
     x="228.76312"
     y="254.77415" /><rect
     style="fill:#000000;stroke-width:0.629509"
     id="rect15-9-1"
     width="24.417311"
     height="12.763594"
     x="228.76312"
     y="276.83469" /><rect
     style="fill:#000000;stroke-width:0.629509"
     id="rect15-7"
     width="24.417311"
     height="12.763594"
     x="228.76312"
     y="299.12936" /><rect
     style="fill:#000000;stroke-width:0.629509"
     id="rect15-9-6"
     width="24.417311"
     height="12.763594"
     x="228.76312"
     y="321.18991" /></g></svg>
