<?xml version="1.0" encoding="UTF-8"?>
<svg xmlns="http://www.w3.org/2000/svg" viewBox="0 0 64 64" width="800" height="800" fill="#000000">
  <title>Elbow 3</title>
  <g id="a" />
  <g id="b">
    <path d="m 53.5,37 h -4 c -1.2076,0 -2.2172,0.86 -2.4495,2 H 28.5 C 28.2246,39 28,38.7754 28,38.5 V 16.9495 c 1.14,-0.2322 2,-1.2418 2,-2.4495 v -4 C 30,9.6729 29.3271,9 28.5,9 h -15 C 12.6729,9 12,9.6729 12,10.5 v 4 c 0,1.2076 0.86,2.2172 2,2.4495 V 45.5 c 0,4.1357 3.3643,7.5 7.5,7.5 h 25.5505 c 0.2322,1.14 1.2418,2 2.4495,2 h 4 c 0.8271,0 1.5,-0.6729 1.5,-1.5 v -15 C 55,37.6729 54.3271,37 53.5,37 Z M 28.1028,52 h -2.0493 c 1.7625,-6.4023 5.129,-11.0641 5.8406,-12 h 1.3378 c -1.2365,1.9584 -4.3342,7.2351 -5.1291,12 z M 15,36.5021 c 1.1126,-0.4899 5.6318,-2.2059 12,-1.1607 v 0.9554 C 25.1548,36.0791 19.2867,35.6286 15,37.9812 V 36.502 Z M 13,14.5 v -4 C 13,10.2246 13.2246,10 13.5,10 h 15 c 0.2754,0 0.5,0.2246 0.5,0.5 v 4 c 0,0.8271 -0.6729,1.5 -1.5,1.5 h -13 C 13.6729,16 13,15.3271 13,14.5 Z m 2,24.6417 c 4.0838,-2.5574 10.3411,-2.0336 12,-1.8358 v 1.1942 c 0,0.2355 0.0594,0.4556 0.1566,0.6541 -1.6897,0.8605 -6.6838,3.8295 -10.726,10.4036 -0.8929,-1.1132 -1.4305,-2.5231 -1.4305,-4.0577 v -6.3583 z m 2.1417,11.1666 c 4.2225,-6.995 9.7094,-9.9006 10.7918,-10.421 0.175,0.0717 0.3659,0.1128 0.5665,0.1128 h 2.1503 c -1.2418,1.735 -4.0723,6.1303 -5.634,12 h -3.5164 c -1.6777,0 -3.2039,-0.6445 -4.3583,-1.6918 z M 54,53.5001 c 0,0.2754 -0.2246,0.5 -0.5,0.5 h -4 c -0.8271,0 -1.5,-0.6729 -1.5,-1.5 v -13 c 0,-0.8271 0.6729,-1.5 1.5,-1.5 h 4 c 0.2754,0 0.5,0.2246 0.5,0.5 z" />
  </g>
</svg>
